<svg width="58" height="89" viewBox="0 0 58 89" fill="none" xmlns="http://www.w3.org/2000/svg">
<mask id="mask0_20_165" style="mask-type:luminance" maskUnits="userSpaceOnUse" x="2" y="0" width="54" height="89">
<path d="M2.133 0.791107H55.8653V88.3078H2.133V0.791107Z" fill="white"/>
</mask>
<g mask="url(#mask0_20_165)">
<path d="M39.6644 32.6938C33.3467 30.7663 27.4694 30.9656 23.4631 31.5195C21.4158 31.8077 19.6772 32.2067 18.3343 32.5834C18.3343 32.561 18.3343 32.561 18.312 32.561C18.0042 31.4755 17.4978 30.5005 16.8375 29.6364L16.8153 29.614C19.7651 28.8163 22.7809 28.3068 25.7964 28.1075C28.6579 27.9078 31.5417 27.9966 34.3594 28.3288C37.4851 28.7055 39.8402 29.3262 41.1393 29.7028C41.1393 29.7249 41.117 29.7249 41.117 29.7249C40.4567 30.589 39.9723 31.6084 39.6644 32.6938ZM55.8653 35.0649C55.8653 39.3194 52.4314 42.7759 48.2052 42.7759C46.6861 42.7759 45.2554 42.3104 44.0669 41.5351L32.202 54.4753L46.5541 88.2215L29.0322 59.3942L9.96935 88.1995L25.07 54.3424L17.4759 43.7064C17.4759 43.7064 15.5166 41.6456 13.9537 41.5572C12.7652 42.3328 11.3345 42.7979 9.81541 42.7979C5.56689 42.7759 2.133 39.3194 2.133 35.0649C2.133 30.7883 5.56689 27.3318 9.79352 27.3318C12.0827 27.3318 14.1518 28.3512 15.5388 29.9466C15.5607 29.9466 15.5607 29.9686 15.5607 29.9686C16.287 30.8107 16.8375 31.7857 17.1454 32.8712V32.8936C17.3435 33.5804 17.4537 34.3116 17.4537 35.0428C17.4537 36.0398 17.2556 36.9928 16.9036 37.8569C18.3562 40.8259 21.7682 47.3846 24.2554 48.7363C26.1046 49.7333 31.3436 49.7997 33.1705 48.7807C35.4159 47.4955 38.2336 43.5956 39.5984 41.4907C40.2145 40.5377 40.8088 39.7625 40.9408 37.4359C40.699 36.6602 40.5228 35.8849 40.5228 35.0204C40.5228 34.3336 40.6107 33.6688 40.7869 33.0264C40.7869 33.0044 40.7869 33.0044 40.7869 33.0044C41.051 32.007 41.5132 31.0985 42.1075 30.3232C42.1297 30.3008 42.1297 30.3008 42.1516 30.2788C43.5386 28.4841 45.7398 27.3098 48.1829 27.3098C52.4314 27.3318 55.8653 30.7883 55.8653 35.0649ZM15.2083 35.0649C15.2083 32.0515 12.7871 29.614 9.79352 29.614C6.79956 29.614 4.37837 32.0515 4.37837 35.0649C4.37837 38.0783 6.79956 40.5157 9.79352 40.5157C12.7871 40.5157 15.2083 38.0783 15.2083 35.0649ZM30.1328 53.7885C30.1328 52.9908 29.4944 52.348 28.702 52.348C27.9097 52.348 27.2932 52.9908 27.2932 53.7885C27.2932 54.5862 27.9316 55.2065 28.702 55.2065C29.4944 55.2285 30.1328 54.5862 30.1328 53.7885ZM53.6203 35.0649C53.6203 32.0515 51.1988 29.614 48.2052 29.614C45.2112 29.614 42.79 32.0515 42.79 35.0649C42.79 38.0783 45.2112 40.5157 48.2052 40.5157C51.1988 40.5157 53.6203 38.0783 53.6203 35.0649ZM3.76184 11.9986L3.67393 11.9098L3.76184 11.9766C4.48855 12.4417 5.23675 12.8848 6.00722 13.2394C6.93162 13.6604 7.8783 14.015 8.86873 14.3032C9.85955 14.6134 10.8719 14.8347 11.8846 14.9676C13.2274 15.1229 14.5922 15.1229 15.935 14.9456H15.9569V14.9676C15.7369 15.4775 15.3845 16.4965 15.6709 17.7377C15.9569 18.9784 16.6832 19.7537 17.0794 20.1083C18.3343 21.2826 20.0733 21.6372 21.658 21.0613C23.9253 20.2192 24.4535 17.8706 24.4758 17.7597C24.784 15.8317 24.0796 14.569 23.4412 13.8377C22.7586 13.0401 21.9882 12.7079 21.9663 12.7079H21.9444L21.9663 12.6855C25.7526 8.98523 27.3592 5.97182 28.0636 4.06628C28.7681 2.13833 28.6802 0.986043 28.6802 0.831143C28.6802 0.831143 28.6802 0.831143 28.6802 0.808739H28.702C28.702 0.808739 28.702 0.808739 28.702 0.831143C28.7681 1.49594 28.8782 2.13833 29.0544 2.78111C29.2744 3.71167 29.6046 4.59781 30.0007 5.46193C30.5071 6.65864 31.1455 7.81092 31.8718 8.85235C32.8404 10.248 34.007 11.5111 35.328 12.597L35.3499 12.619H35.328C35.0639 12.7299 34.8216 12.8628 34.5794 13.0401C34.0293 13.3947 33.5448 13.8598 33.1705 14.4137C32.9064 15.0341 32.7743 15.6989 32.7525 16.3857C32.7302 17.5824 33.1268 18.5353 33.4569 19.1333C33.6987 19.5988 34.4473 20.7287 35.9222 21.1941C37.8371 21.7925 39.4003 20.7731 39.6863 20.5738C39.9945 20.3965 41.4913 19.4435 41.7555 17.5824C41.9317 16.3857 41.5132 15.4111 41.2491 14.9456L41.2272 14.9236H41.2491C42.3059 15.0785 43.3843 15.1449 44.463 15.1009C47.6109 14.9676 50.7807 13.9262 53.6203 12.0651L53.7083 11.9986L50.7147 15.1893C49.5258 16.5189 48.3814 17.937 47.3687 19.333C46.7963 20.1307 46.2458 20.9284 45.7398 21.7481L45.6516 21.881C45.2112 22.5678 44.749 23.277 44.3091 24.1411C43.6707 25.3819 43.1202 26.6894 42.6799 28.0186V28.041L42.658 28.0186C36.7587 25.3598 29.4506 25.4043 24.3437 25.9138C19.1927 26.4233 15.2083 27.4871 14.6582 27.642C14.614 27.664 14.5922 27.664 14.5922 27.664H14.5703V27.642C14.5703 27.62 14.5703 27.5976 14.548 27.5756C14.262 25.9582 12.7871 23.4763 11.5986 21.6816C10.8281 20.5073 9.92558 19.1777 9.00079 18.0699C8.12053 17.0064 7.218 15.9426 6.2936 14.9012C5.52313 13.9042 4.64249 12.9512 3.76184 11.9986ZM45.4976 22.0583C45.5418 21.9698 45.6078 21.881 45.6516 21.8145C45.6078 21.903 45.5636 21.9918 45.4976 22.0583ZM44.1106 15.0785C43.1862 15.1009 42.2618 15.0341 41.3374 14.9012C42.2618 15.0565 43.1862 15.1009 44.1106 15.0785ZM34.9537 12.7963C35.0857 12.7299 35.1959 12.6634 35.328 12.597C35.1959 12.641 35.0857 12.7299 34.9537 12.7963ZM32.7525 16.5854C32.7743 17.6708 33.1486 18.5574 33.4569 19.1113C33.5448 19.2662 33.6769 19.4879 33.8531 19.7097C33.655 19.4659 33.5229 19.2442 33.4569 19.0893C33.1268 18.5574 32.7743 17.6932 32.7525 16.5854ZM29.4506 4.0883C29.6046 4.55377 29.8026 4.99684 30.0007 5.46193C30.5071 6.65864 31.1455 7.81092 31.8941 8.87437C32.5981 9.89377 33.4346 10.8463 34.3372 11.7105C33.4346 10.8463 32.6204 9.89377 31.916 8.85235C31.1674 7.78852 30.529 6.63623 30.023 5.46193C29.8026 4.99684 29.6046 4.55377 29.4506 4.0883ZM29.1865 25.5812C29.3846 25.5812 29.5604 25.5812 29.7589 25.5812C31.0576 25.5812 32.3121 25.6256 33.5007 25.7365C32.2903 25.6256 31.0576 25.5812 29.7589 25.5812C29.5604 25.5812 29.3623 25.5812 29.1865 25.5812ZM20.4695 26.3789C19.919 26.4677 19.3908 26.5562 18.9067 26.645C19.0825 26.6226 19.2587 26.5786 19.4568 26.5562C19.633 26.5341 19.8311 26.4897 20.0073 26.4677C20.1612 26.4233 20.3152 26.4013 20.4695 26.3789ZM24.3875 15.3667C24.2336 14.8571 23.9694 14.3697 23.6174 13.9486C23.9476 14.3697 24.2117 14.8571 24.3875 15.3667ZM24.5196 17.7597C24.5418 17.6044 24.5637 17.4715 24.5637 17.3166C24.5418 17.4495 24.5418 17.6044 24.5196 17.7597ZM22.6489 26.0467C23.2208 25.9802 23.7932 25.9138 24.3875 25.8473C23.7713 25.9138 23.199 25.9802 22.6489 26.0467ZM20.5574 26.3568C20.7117 26.3348 20.8657 26.3124 21.0196 26.2904C21.5482 26.2019 22.0765 26.1355 22.6489 26.0467C21.9003 26.1575 21.2177 26.246 20.5574 26.3568ZM15.6709 17.7377C15.9569 18.9784 16.6832 19.7537 17.1016 20.1083C17.7178 20.6846 18.4664 21.0613 19.2806 21.2386C20.0292 21.3935 20.7778 21.349 21.5041 21.1277C20.7997 21.349 20.0292 21.3935 19.2806 21.2386C18.4664 21.0613 17.7178 20.6846 17.1016 20.1083C16.6832 19.7761 15.9569 18.9784 15.6709 17.7377C15.4068 16.4965 15.7146 15.4775 15.9569 14.9676C15.7146 15.4995 15.4068 16.4965 15.6709 17.7377ZM15.2306 27.4427C15.3185 27.4203 15.4068 27.3983 15.5166 27.3762C15.6267 27.3538 15.7588 27.3098 15.8909 27.2874C15.9127 27.2874 15.9127 27.2654 15.935 27.2654C16.0889 27.221 16.2429 27.1765 16.4191 27.1545C16.7055 27.0881 17.0133 27.0216 17.3658 26.9332C16.4413 27.1545 15.7146 27.3318 15.2306 27.4427ZM14.7461 27.5756C14.7684 27.5756 14.7902 27.5756 14.8121 27.5536C14.8563 27.5536 14.9004 27.5311 14.9442 27.5091C14.8563 27.5536 14.7902 27.5536 14.7461 27.5756ZM11.8404 14.99C11.8627 14.99 11.8846 14.99 11.9065 14.99C12.303 15.0341 12.6992 15.0565 13.0731 15.0785C12.6769 15.0565 12.2807 15.0341 11.8846 14.99C11.8846 14.99 11.8627 14.99 11.8404 14.99ZM6.02948 13.2838C6.27133 13.3947 6.53545 13.5055 6.77768 13.594C6.53545 13.4831 6.27133 13.3947 6.02948 13.2838ZM3.87202 12.0651C4.24631 12.4641 4.6206 12.8628 4.9949 13.2838C4.59834 12.8628 4.24631 12.4641 3.87202 12.0651ZM29.1205 40.0947C29.7589 41.0252 31.1455 41.6236 33.655 41.6236C37.1108 41.6236 38.96 39.275 38.96 37.3915C38.96 37.3915 37.3311 38.9648 35.2838 38.9648C32.4661 38.9648 32.0922 36.4829 30.4629 36.4829C29.8468 36.4829 29.4284 36.6826 29.1205 36.9704C28.8341 36.6602 28.3938 36.4829 27.7776 36.4829C26.1488 36.4829 25.7745 38.9648 22.9567 38.9648C20.9098 38.9648 19.2806 37.3915 19.2806 37.3915C19.2806 39.275 21.1298 41.6236 24.586 41.6236C27.0951 41.6016 28.4821 41.0252 29.1205 40.0947ZM33.9632 41.8453H34.2492L34.5352 41.8229C34.7114 41.8229 34.9095 41.8009 35.0857 41.7789L35.3499 41.7345C35.4378 41.7124 35.5261 41.69 35.614 41.69C35.7019 41.668 35.7902 41.6456 35.8781 41.6236C35.9664 41.6016 36.0543 41.5792 36.1422 41.5572C36.3184 41.5127 36.4946 41.4463 36.6704 41.3798C37.0229 41.247 37.353 41.0476 37.639 40.8259C37.705 40.7595 37.7933 40.715 37.8593 40.6486L37.9691 40.5602L38.0793 40.4713C38.2114 40.3384 38.3434 40.1835 38.4536 40.0503C38.5196 39.9838 38.5638 39.8954 38.6076 39.8065C38.6517 39.718 38.7177 39.6516 38.7619 39.5631C38.8498 39.3858 38.9377 39.2306 39.0037 39.0533C39.0698 38.8759 39.1362 38.6986 39.1799 38.5217C39.2241 38.3444 39.2682 38.1447 39.2901 37.9674C39.312 37.7905 39.3343 37.5908 39.3561 37.4135C39.378 37.2366 39.378 37.0368 39.378 36.8595V36.6382L39.2241 36.7931C39.092 36.9264 38.9377 37.0368 38.8056 37.1697C38.6517 37.2806 38.4978 37.4135 38.3657 37.5243C38.0574 37.7461 37.7273 37.9454 37.3971 38.1227C37.067 38.3 36.7146 38.4549 36.3626 38.5658C36.2743 38.5882 36.1864 38.6102 36.0984 38.6322C36.0102 38.6546 35.9222 38.6766 35.8121 38.6986C35.7242 38.721 35.6359 38.721 35.5261 38.7431C35.4378 38.7655 35.328 38.7655 35.2397 38.7655C35.328 38.7655 35.4378 38.7655 35.5261 38.7655C35.614 38.7655 35.7242 38.7431 35.8121 38.7431C35.9 38.721 36.0102 38.721 36.0984 38.6986C36.1864 38.6766 36.2965 38.6546 36.3844 38.6322C36.7587 38.5437 37.1108 38.4109 37.4632 38.2336C37.8152 38.0563 38.1453 37.8789 38.4755 37.6572C38.6298 37.5467 38.7838 37.4359 38.9377 37.325C39.026 37.2586 39.1139 37.1697 39.2022 37.1033C39.2022 37.2141 39.2022 37.325 39.1799 37.4359C39.158 37.6132 39.158 37.7905 39.1139 37.9674C39.092 38.1447 39.0479 38.322 39.0037 38.4993C38.96 38.6766 38.8939 38.8539 38.8279 39.0088C38.7619 39.1861 38.6958 39.3414 38.6076 39.4963C38.5638 39.5852 38.5196 39.6516 38.4755 39.7401C38.4317 39.8065 38.3657 39.8954 38.3216 39.9618C38.2114 40.0947 38.1016 40.25 37.9691 40.3608L37.8812 40.4493L37.7711 40.5377C37.705 40.6042 37.639 40.6486 37.573 40.715C37.4409 40.8259 37.287 40.9148 37.133 41.0252C36.9787 41.1141 36.8248 41.2025 36.6486 41.269C36.4724 41.3354 36.3184 41.4023 36.1422 41.4687C36.0543 41.4907 35.9664 41.5351 35.8781 41.5572C35.7902 41.5792 35.7019 41.6016 35.614 41.6236C35.5261 41.6456 35.4378 41.668 35.3499 41.69L35.0857 41.7345C34.9095 41.7565 34.7333 41.8009 34.5352 41.8229L34.2711 41.8453L34.007 41.8673C33.8308 41.8894 33.6327 41.8894 33.4569 41.8894C33.589 41.8229 33.7648 41.8453 33.9632 41.8453ZM19.8311 37.5688C20.1612 37.7905 20.4914 37.9674 20.8438 38.1447C21.1958 38.322 21.5482 38.4549 21.9221 38.5437C22.0104 38.5658 22.0984 38.5882 22.2085 38.6102C22.2964 38.6322 22.4066 38.6322 22.4945 38.6546C22.5828 38.6546 22.6926 38.6766 22.7809 38.6766C22.8688 38.6766 22.979 38.6766 23.0669 38.6766C22.979 38.6766 22.8688 38.6766 22.7809 38.6546C22.6926 38.6546 22.5828 38.6322 22.4945 38.6102C22.4066 38.5882 22.3183 38.5658 22.2085 38.5437C22.1202 38.5217 22.0323 38.4993 21.9444 38.4773C21.592 38.3664 21.24 38.2112 20.9098 38.0342C20.5797 37.8569 20.2492 37.6572 19.9413 37.4359C19.787 37.325 19.633 37.2141 19.501 37.0813C19.3466 36.9704 19.2146 36.8375 19.0825 36.7046L18.9286 36.5494V36.7711C18.9286 36.9484 18.9286 37.1477 18.9505 37.325C18.9727 37.5023 18.9727 37.7016 19.0165 37.8789C19.0387 38.0563 19.0825 38.2556 19.1267 38.4329C19.1708 38.6102 19.2368 38.7875 19.3029 38.9648C19.3689 39.1421 19.4568 39.3194 19.5451 39.4743C19.5889 39.5631 19.633 39.6296 19.699 39.718C19.7432 39.8065 19.8092 39.8733 19.853 39.9618C19.9632 40.1171 20.0952 40.25 20.2273 40.3828L20.3375 40.4713L20.4476 40.5602C20.5137 40.6266 20.6016 40.671 20.6676 40.7375C20.9759 40.9588 21.306 41.1361 21.6362 41.2914C21.8124 41.3578 21.9882 41.4243 22.1644 41.4687C22.2523 41.4907 22.3406 41.5127 22.4285 41.5351C22.5168 41.5572 22.6047 41.5792 22.6926 41.6016C22.7809 41.6236 22.8688 41.6456 22.9567 41.6456L23.2208 41.69C23.3971 41.7124 23.5951 41.7345 23.7713 41.7345L24.0573 41.7565H24.3437C24.5196 41.7565 24.718 41.7565 24.8938 41.7565C24.718 41.7345 24.5196 41.7345 24.3437 41.7345L24.0796 41.7124L23.8155 41.69C23.6393 41.668 23.4631 41.6456 23.265 41.6016L23.0009 41.5572C22.913 41.5351 22.8247 41.5127 22.7368 41.4907C22.6489 41.4687 22.5606 41.4463 22.4726 41.4243C22.3844 41.4023 22.2964 41.3798 22.2085 41.3354C22.0323 41.269 21.8561 41.2025 21.7022 41.1361C21.526 41.0697 21.372 40.9812 21.2177 40.8924C21.0638 40.8039 20.9098 40.693 20.7778 40.5822C20.7117 40.5157 20.6457 40.4713 20.5797 40.4049L20.4695 40.3164L20.3812 40.2276C20.2492 40.0947 20.1394 39.9618 20.0292 39.8289C19.985 39.7625 19.919 39.6736 19.8752 39.6072C19.8311 39.5187 19.787 39.4523 19.7432 39.3634C19.6549 39.2085 19.5889 39.0312 19.5228 38.8759C19.4568 38.6986 19.413 38.5437 19.3466 38.3664C19.3029 38.1891 19.2587 38.0118 19.2368 37.8345C19.2146 37.6572 19.1927 37.4803 19.1708 37.303C19.1708 37.1921 19.1708 37.0813 19.1485 36.9704C19.2368 37.0368 19.3247 37.1257 19.413 37.1921C19.5228 37.347 19.6772 37.4579 19.8311 37.5688Z" fill="#F9F9F9"/>
</g>
</svg>
