<svg width="51" height="50" viewBox="0 0 51 50" fill="none" xmlns="http://www.w3.org/2000/svg">
<path d="M6.05556 0.5H44.9444C47.7365 0.5 50 2.76345 50 5.55556V44.4444C50 47.2365 47.7365 49.5 44.9444 49.5H6.05556C3.26345 49.5 1 47.2365 1 44.4444V5.55556C1 2.76345 3.26345 0.5 6.05556 0.5Z" fill="#1C1C1C" stroke="#DD8F19"/>
<path fill-rule="evenodd" clip-rule="evenodd" d="M42.489 9.31764V15.7833L38.6516 15.7932C35.6436 15.7932 35.064 17.2223 35.064 19.3109V23.9377H42.2291L41.2998 31.1728H35.064V50.0001H27.5901V31.1728H21.3333V23.9377H27.5901V18.6013C27.5901 12.4055 31.3665 9.02783 36.9028 9.02783C39.542 9.02783 41.8194 9.2277 42.489 9.31764Z" fill="white"/>
</svg>
