<svg width="32" height="32" viewBox="0 0 32 32" fill="none" xmlns="http://www.w3.org/2000/svg">
<rect width="32" height="32" fill="#2D2D2D"/>
<mask id="mask0_35_17" style="mask-type:luminance" maskUnits="userSpaceOnUse" x="7" y="2" width="18" height="28">
<path d="M7 2H24.2093V29.856H7V2Z" fill="white"/>
</mask>
<g mask="url(#mask0_35_17)">
</g>
<mask id="mask1_35_17" style="mask-type:luminance" maskUnits="userSpaceOnUse" x="7" y="2" width="18" height="28">
<path d="M7 2H24.2093V29.856H7V2Z" fill="white"/>
</mask>
<g mask="url(#mask1_35_17)">
<path d="M19.0205 12.1547C16.9971 11.5411 15.1147 11.6046 13.8316 11.7809C13.1759 11.8726 12.619 11.9996 12.1889 12.1195C12.1889 12.1124 12.1889 12.1124 12.1818 12.1124C12.0832 11.7669 11.921 11.4565 11.7095 11.1815L11.7024 11.1744C12.6472 10.9205 13.6131 10.7583 14.5789 10.6949C15.4954 10.6313 16.419 10.6596 17.3214 10.7653C18.3225 10.8852 19.0768 11.0828 19.4929 11.2026C19.4929 11.2097 19.4858 11.2097 19.4858 11.2097C19.2743 11.4847 19.1191 11.8092 19.0205 12.1547ZM24.2093 12.9093C24.2093 14.2635 23.1095 15.3637 21.7559 15.3637C21.2694 15.3637 20.8112 15.2155 20.4305 14.9688L16.6304 19.0875L21.2271 29.8287L15.6152 20.6532L9.50982 29.8217L14.3462 19.0453L11.914 15.6599C11.914 15.6599 11.2865 15.0039 10.7859 14.9758C10.4053 15.2227 9.94703 15.3707 9.46051 15.3707C8.0998 15.3637 7 14.2635 7 12.9093C7 11.5481 8.0998 10.448 9.4535 10.448C10.1867 10.448 10.8494 10.7724 11.2936 11.2802C11.3006 11.2802 11.3006 11.2872 11.3006 11.2872C11.5332 11.5553 11.7095 11.8656 11.8082 12.2111V12.2182C11.8716 12.4368 11.9069 12.6696 11.9069 12.9023C11.9069 13.2197 11.8434 13.523 11.7307 13.798C12.1959 14.743 13.2887 16.8306 14.0853 17.2609C14.6776 17.5782 16.3555 17.5993 16.9407 17.275C17.6598 16.8659 18.5623 15.6246 18.9994 14.9546C19.1967 14.6513 19.387 14.4046 19.4293 13.664C19.3519 13.4171 19.2954 13.1704 19.2954 12.8952C19.2954 12.6766 19.3236 12.465 19.38 12.2605C19.38 12.2535 19.38 12.2535 19.38 12.2535C19.4646 11.9361 19.6126 11.6469 19.803 11.4001C19.8101 11.393 19.8101 11.393 19.8171 11.386C20.2613 10.8147 20.9663 10.441 21.7488 10.441C23.1095 10.448 24.2093 11.5481 24.2093 12.9093ZM11.1877 12.9093C11.1877 11.9502 10.4123 11.1744 9.4535 11.1744C8.4946 11.1744 7.71915 11.9502 7.71915 12.9093C7.71915 13.8685 8.4946 14.6443 9.4535 14.6443C10.4123 14.6443 11.1877 13.8685 11.1877 12.9093ZM15.9677 18.8689C15.9677 18.615 15.7633 18.4105 15.5095 18.4105C15.2557 18.4105 15.0583 18.615 15.0583 18.8689C15.0583 19.1228 15.2627 19.3203 15.5095 19.3203C15.7633 19.3273 15.9677 19.1228 15.9677 18.8689ZM23.4903 12.9093C23.4903 11.9502 22.7147 11.1744 21.7559 11.1744C20.797 11.1744 20.0216 11.9502 20.0216 12.9093C20.0216 13.8685 20.797 14.6443 21.7559 14.6443C22.7147 14.6443 23.4903 13.8685 23.4903 12.9093ZM7.52168 5.56752L7.49353 5.53924L7.52168 5.56051C7.75443 5.70854 7.99407 5.84957 8.24083 5.96244C8.5369 6.09646 8.8401 6.20933 9.15731 6.30105C9.47465 6.39978 9.79888 6.47023 10.1232 6.51253C10.5533 6.56195 10.9904 6.56195 11.4205 6.50552H11.4275V6.51253C11.357 6.67482 11.2442 6.99917 11.3359 7.39421C11.4275 7.78913 11.6601 8.0359 11.787 8.14877C12.1889 8.52254 12.7459 8.63541 13.2535 8.45209C13.9796 8.18406 14.1488 7.43651 14.1559 7.40122C14.2547 6.78757 14.029 6.38564 13.8246 6.15289C13.606 5.899 13.3592 5.79326 13.3522 5.79326H13.3452L13.3522 5.78613C14.5649 4.60837 15.0794 3.64922 15.305 3.0427C15.5306 2.42905 15.5025 2.06228 15.5025 2.01298C15.5025 2.01298 15.5025 2.01298 15.5025 2.00585H15.5095C15.5095 2.00585 15.5095 2.00585 15.5095 2.01298C15.5306 2.22458 15.5659 2.42905 15.6224 2.63364C15.6928 2.92983 15.7986 3.21188 15.9254 3.48693C16.0876 3.86783 16.2921 4.2346 16.5247 4.56607C16.8349 5.0103 17.2086 5.41235 17.6316 5.75797L17.6387 5.76498H17.6316C17.5471 5.80027 17.4695 5.84256 17.3919 5.899C17.2157 6.01187 17.0605 6.1599 16.9407 6.33621C16.8561 6.53367 16.8138 6.74527 16.8068 6.96388C16.7996 7.34479 16.9266 7.64811 17.0324 7.83844C17.1098 7.9866 17.3496 8.34623 17.822 8.49439C18.4353 8.68484 18.9359 8.36037 19.0275 8.29693C19.1262 8.24049 19.6056 7.93717 19.6902 7.34479C19.7467 6.96388 19.6126 6.65367 19.5281 6.50552L19.521 6.49851H19.5281C19.8665 6.54781 20.2119 6.56896 20.5574 6.55494C21.5656 6.51253 22.5808 6.18105 23.4903 5.58867L23.5185 5.56752L22.5597 6.5831C22.1789 7.0063 21.8124 7.45766 21.488 7.902C21.3047 8.1559 21.1284 8.4098 20.9663 8.6707L20.9381 8.71299C20.797 8.9316 20.649 9.15734 20.5081 9.43239C20.3036 9.82731 20.1273 10.2435 19.9863 10.6666V10.6737L19.9793 10.6666C18.0899 9.8203 15.7493 9.83444 14.1136 9.99661C12.4639 10.1588 11.1877 10.4974 11.0115 10.5467C10.9974 10.5537 10.9904 10.5537 10.9904 10.5537H10.9834V10.5467C10.9834 10.5397 10.9834 10.5326 10.9763 10.5256C10.8847 10.0108 10.4123 9.22079 10.0316 8.64955C9.78486 8.27578 9.4958 7.85258 9.19961 7.49995C8.91768 7.16147 8.62862 6.82286 8.33255 6.49138C8.08579 6.17404 7.80374 5.87072 7.52168 5.56752ZM20.8888 8.76943C20.9029 8.74127 20.924 8.71299 20.9381 8.69185C20.924 8.72 20.9099 8.74828 20.8888 8.76943ZM20.4445 6.54781C20.1485 6.55494 19.8524 6.53367 19.5563 6.49138C19.8524 6.5408 20.1485 6.55494 20.4445 6.54781ZM17.5118 5.82141C17.5541 5.80027 17.5894 5.77912 17.6316 5.75797C17.5894 5.77199 17.5541 5.80027 17.5118 5.82141ZM16.8068 7.02745C16.8138 7.37294 16.9336 7.65512 17.0324 7.83143C17.0605 7.88073 17.1028 7.95131 17.1593 8.02188C17.0958 7.9443 17.0535 7.87373 17.0324 7.82442C16.9266 7.65512 16.8138 7.38007 16.8068 7.02745ZM15.7493 3.04971C15.7986 3.19787 15.862 3.33889 15.9254 3.48693C16.0876 3.86783 16.2921 4.2346 16.5318 4.57308C16.7573 4.89755 17.0252 5.20075 17.3143 5.4758C17.0252 5.20075 16.7645 4.89755 16.5388 4.56607C16.2991 4.22747 16.0946 3.8607 15.9326 3.48693C15.862 3.33889 15.7986 3.19787 15.7493 3.04971ZM15.6647 9.89075C15.7281 9.89075 15.7844 9.89075 15.848 9.89075C16.2639 9.89075 16.6657 9.90489 17.0464 9.94018C16.6587 9.90489 16.2639 9.89075 15.848 9.89075C15.7844 9.89075 15.721 9.89075 15.6647 9.89075ZM12.8728 10.1446C12.6965 10.1729 12.5273 10.2011 12.3723 10.2294C12.4286 10.2222 12.485 10.2082 12.5484 10.2011C12.6049 10.1941 12.6683 10.1799 12.7248 10.1729C12.7741 10.1588 12.8234 10.1518 12.8728 10.1446ZM14.1276 6.63953C14.0783 6.47736 13.9937 6.3222 13.881 6.18818C13.9867 6.3222 14.0713 6.47736 14.1276 6.63953ZM14.1699 7.40122C14.1771 7.35179 14.1841 7.3095 14.1841 7.2602C14.1771 7.30249 14.1771 7.35179 14.1699 7.40122ZM13.5708 10.0389C13.754 10.0178 13.9373 9.99661 14.1276 9.97546C13.9303 9.99661 13.747 10.0178 13.5708 10.0389ZM12.901 10.1376C12.9504 10.1306 12.9997 10.1235 13.049 10.1165C13.2183 10.0883 13.3875 10.0672 13.5708 10.0389C13.331 10.0742 13.1124 10.1024 12.901 10.1376ZM11.3359 7.39421C11.4275 7.78913 11.6601 8.0359 11.7941 8.14877C11.9915 8.33221 12.2312 8.45209 12.492 8.50853C12.7318 8.55783 12.9715 8.54369 13.2041 8.47324C12.9785 8.54369 12.7318 8.55783 12.492 8.50853C12.2312 8.45209 11.9915 8.33221 11.7941 8.14877C11.6601 8.04303 11.4275 7.78913 11.3359 7.39421C11.2513 6.99917 11.3499 6.67482 11.4275 6.51253C11.3499 6.68183 11.2513 6.99917 11.3359 7.39421ZM11.1949 10.4833C11.223 10.4761 11.2513 10.4691 11.2865 10.4621C11.3218 10.455 11.3641 10.441 11.4063 10.4338C11.4134 10.4338 11.4134 10.4268 11.4205 10.4268C11.4698 10.4127 11.5191 10.3985 11.5755 10.3915C11.6673 10.3704 11.7659 10.3492 11.8787 10.3211C11.5827 10.3915 11.3499 10.448 11.1949 10.4833ZM11.0397 10.5256C11.0468 10.5256 11.0538 10.5256 11.0609 10.5185C11.075 10.5185 11.0891 10.5114 11.1031 10.5044C11.075 10.5185 11.0538 10.5185 11.0397 10.5256ZM10.1091 6.51966C10.1162 6.51966 10.1232 6.51966 10.1302 6.51966C10.2572 6.53367 10.3841 6.5408 10.5039 6.54781C10.377 6.5408 10.2501 6.53367 10.1232 6.51966C10.1232 6.51966 10.1162 6.51966 10.1091 6.51966ZM8.24796 5.97658C8.32542 6.01187 8.41001 6.04715 8.48759 6.07531C8.41001 6.04002 8.32542 6.01187 8.24796 5.97658ZM7.55697 5.58867C7.67685 5.71567 7.79673 5.84256 7.91661 5.97658C7.7896 5.84256 7.67685 5.71567 7.55697 5.58867ZM15.6435 14.5103C15.848 14.8065 16.2921 14.9969 17.0958 14.9969C18.2026 14.9969 18.7949 14.2494 18.7949 13.6499C18.7949 13.6499 18.2732 14.1507 17.6175 14.1507C16.715 14.1507 16.5953 13.3607 16.0735 13.3607C15.8761 13.3607 15.7421 13.4243 15.6435 13.5159C15.5518 13.4171 15.4108 13.3607 15.2134 13.3607C14.6917 13.3607 14.5719 14.1507 13.6694 14.1507C13.0138 14.1507 12.492 13.6499 12.492 13.6499C12.492 14.2494 13.0843 14.9969 14.1912 14.9969C14.9948 14.9899 15.439 14.8065 15.6435 14.5103ZM17.1946 15.0675H17.2862L17.3777 15.0604C17.4342 15.0604 17.4976 15.0534 17.5541 15.0464L17.6387 15.0322C17.6668 15.0252 17.6951 15.0181 17.7232 15.0181C17.7514 15.0111 17.7797 15.0039 17.8078 14.9969C17.8361 14.9899 17.8643 14.9828 17.8924 14.9758C17.9489 14.9617 18.0053 14.9405 18.0616 14.9194C18.1745 14.8771 18.2802 14.8136 18.3718 14.743C18.393 14.7219 18.4212 14.7078 18.4424 14.6866L18.4776 14.6585L18.5128 14.6302C18.5551 14.5879 18.5974 14.5386 18.6327 14.4962C18.6539 14.475 18.668 14.4469 18.682 14.4186C18.6962 14.3904 18.7173 14.3693 18.7314 14.3411C18.7596 14.2847 18.7878 14.2353 18.8089 14.1788C18.8301 14.1224 18.8513 14.0659 18.8653 14.0096C18.8795 13.9532 18.8936 13.8896 18.9006 13.8332C18.9076 13.7769 18.9148 13.7133 18.9218 13.6569C18.9288 13.6006 18.9288 13.537 18.9288 13.4806V13.4101L18.8795 13.4594C18.8372 13.5018 18.7878 13.537 18.7455 13.5793C18.6962 13.6146 18.6469 13.6569 18.6046 13.6922C18.5058 13.7628 18.4001 13.8262 18.2944 13.8826C18.1886 13.9391 18.0757 13.9884 17.963 14.0237C17.9347 14.0308 17.9066 14.0378 17.8784 14.0448C17.8501 14.0519 17.822 14.0589 17.7867 14.0659C17.7585 14.0731 17.7303 14.0731 17.6951 14.0801C17.6668 14.0872 17.6316 14.0872 17.6034 14.0872C17.6316 14.0872 17.6668 14.0872 17.6951 14.0872C17.7232 14.0872 17.7585 14.0801 17.7867 14.0801C17.8148 14.0731 17.8501 14.0731 17.8784 14.0659C17.9066 14.0589 17.9419 14.0519 17.97 14.0448C18.0899 14.0166 18.2026 13.9744 18.3155 13.9179C18.4283 13.8615 18.534 13.805 18.6397 13.7345C18.6892 13.6993 18.7385 13.664 18.7878 13.6287C18.816 13.6076 18.8442 13.5793 18.8725 13.5582C18.8725 13.5934 18.8725 13.6287 18.8653 13.664C18.8583 13.7205 18.8583 13.7769 18.8442 13.8332C18.8372 13.8896 18.823 13.9461 18.8089 14.0025C18.7949 14.0589 18.7737 14.1154 18.7526 14.1647C18.7314 14.2211 18.7103 14.2705 18.682 14.3198C18.668 14.3481 18.6539 14.3693 18.6397 14.3974C18.6257 14.4186 18.6046 14.4469 18.5904 14.468C18.5551 14.5103 18.52 14.5597 18.4776 14.595L18.4494 14.6232L18.4141 14.6513C18.393 14.6725 18.3718 14.6866 18.3507 14.7078C18.3084 14.743 18.2591 14.7713 18.2098 14.8065C18.1603 14.8348 18.111 14.8629 18.0546 14.8841C17.9982 14.9052 17.9489 14.9265 17.8924 14.9476C17.8643 14.9546 17.8361 14.9688 17.8078 14.9758C17.7797 14.9828 17.7514 14.9899 17.7232 14.9969C17.6951 15.0039 17.6668 15.0111 17.6387 15.0181L17.5541 15.0322C17.4976 15.0392 17.4412 15.0534 17.3777 15.0604L17.2932 15.0675L17.2086 15.0745C17.1521 15.0815 17.0887 15.0815 17.0324 15.0815C17.0747 15.0604 17.131 15.0675 17.1946 15.0675ZM12.6683 13.7063C12.7741 13.7769 12.8798 13.8332 12.9927 13.8896C13.1054 13.9461 13.2183 13.9884 13.338 14.0166C13.3663 14.0237 13.3945 14.0308 13.4298 14.0378C13.4579 14.0448 13.4932 14.0448 13.5214 14.0519C13.5496 14.0519 13.5848 14.0589 13.6131 14.0589C13.6412 14.0589 13.6765 14.0589 13.7047 14.0589C13.6765 14.0589 13.6412 14.0589 13.6131 14.0519C13.5848 14.0519 13.5496 14.0448 13.5214 14.0378C13.4932 14.0308 13.4649 14.0237 13.4298 14.0166C13.4015 14.0096 13.3733 14.0025 13.3452 13.9955C13.2323 13.9602 13.1196 13.9108 13.0138 13.8545C12.9081 13.798 12.8022 13.7345 12.7036 13.664C12.6542 13.6287 12.6049 13.5934 12.5626 13.5512C12.5132 13.5159 12.4709 13.4736 12.4286 13.4313L12.3793 13.3818V13.4524C12.3793 13.5089 12.3793 13.5723 12.3863 13.6287C12.3934 13.6852 12.3934 13.7486 12.4074 13.805C12.4146 13.8615 12.4286 13.9249 12.4427 13.9814C12.4568 14.0378 12.478 14.0942 12.4991 14.1507C12.5203 14.2071 12.5484 14.2635 12.5767 14.3128C12.5907 14.3411 12.6049 14.3623 12.626 14.3904C12.6402 14.4186 12.6613 14.4398 12.6753 14.468C12.7106 14.5174 12.7529 14.5597 12.7952 14.602L12.8305 14.6302L12.8658 14.6585C12.8869 14.6796 12.9151 14.6937 12.9362 14.7149C13.035 14.7853 13.1407 14.8418 13.2464 14.8912C13.3029 14.9124 13.3592 14.9335 13.4156 14.9476C13.4438 14.9546 13.4721 14.9617 13.5002 14.9688C13.5285 14.9758 13.5567 14.9828 13.5848 14.9899C13.6131 14.9969 13.6412 15.0039 13.6694 15.0039L13.754 15.0181C13.8104 15.0252 13.8739 15.0322 13.9303 15.0322L14.0219 15.0392H14.1136C14.1699 15.0392 14.2335 15.0392 14.2898 15.0392C14.2335 15.0322 14.1699 15.0322 14.1136 15.0322L14.029 15.0252L13.9444 15.0181C13.888 15.0111 13.8316 15.0039 13.7681 14.9899L13.6835 14.9758C13.6554 14.9688 13.6271 14.9617 13.5989 14.9546C13.5708 14.9476 13.5425 14.9405 13.5144 14.9335C13.4861 14.9265 13.4579 14.9194 13.4298 14.9052C13.3733 14.8841 13.3169 14.8629 13.2676 14.8418C13.2112 14.8206 13.1619 14.7925 13.1124 14.7642C13.0631 14.736 13.0138 14.7008 12.9715 14.6655C12.9504 14.6443 12.9292 14.6302 12.9081 14.609L12.8728 14.5809L12.8445 14.5526C12.8022 14.5103 12.7671 14.468 12.7318 14.4257C12.7176 14.4046 12.6965 14.3763 12.6825 14.3551C12.6683 14.327 12.6542 14.3058 12.6402 14.2775C12.6119 14.2282 12.5907 14.1718 12.5696 14.1224C12.5484 14.0659 12.5344 14.0166 12.5132 13.9602C12.4991 13.9038 12.485 13.8473 12.478 13.7909C12.4709 13.7345 12.4639 13.6782 12.4568 13.6217C12.4568 13.5864 12.4568 13.5512 12.4497 13.5159C12.478 13.537 12.5062 13.5653 12.5344 13.5864C12.5696 13.6357 12.619 13.671 12.6683 13.7063Z" fill="#DD8F19"/>
</g>
</svg>
