<svg width="56" height="56" viewBox="0 0 56 56" fill="none" xmlns="http://www.w3.org/2000/svg">
<mask id="mask0_24_67" style="mask-type:luminance" maskUnits="userSpaceOnUse" x="20" y="21" width="3" height="3">
<path d="M20.964 21.4944H22.6839V23.7448H20.964V21.4944Z" fill="white"/>
</mask>
<g mask="url(#mask0_24_67)">
<path d="M20.964 21.4944H22.6839V23.7453H20.964V21.4944Z" fill="#F9F9F9"/>
</g>
<path d="M12.6158 27.0426C11.3086 26.0787 9.95555 25.0802 9.54017 23.7298C9.39118 23.2517 9.34378 22.6708 9.29298 22.0554C9.25215 21.5693 9.21132 21.0683 9.11628 20.6019L9.01323 20.1566L8.8285 20.5528L8.80541 20.6002C8.80225 20.6082 8.79399 20.6213 8.77284 20.651C8.66639 20.826 8.54364 20.9553 8.41118 21.0306L8.30156 21.0946L8.33923 21.2139C8.49479 21.7034 8.50451 22.137 8.51423 22.6397C8.51934 22.8492 8.5242 23.0667 8.54048 23.3008C8.60757 24.3289 9.09684 25.2455 9.95555 25.9525C10.875 26.7138 11.927 27.3635 12.9446 27.992C13.2293 28.1687 13.5122 28.3439 13.7905 28.5192L13.9212 28.6026L14.0063 28.4749C14.0163 28.457 14.0309 28.4421 14.044 28.4273L14.1699 28.2752L14.0588 28.1738C13.6318 27.7939 13.1393 27.4288 12.6158 27.0426Z" fill="#F9F9F9"/>
<path d="M10.4874 23.0849C9.6758 21.9112 9.6318 20.4232 10.808 19.5672C10.569 19.0893 10.3269 18.6146 10.0783 18.1514C9.9818 17.9764 9.88045 17.806 9.78542 17.6342C9.76257 17.6538 9.73802 17.6701 9.70691 17.6881C9.27986 17.9042 8.84309 18.1351 8.46854 18.4379C9.53507 19.2383 9.65125 20.6082 9.78055 21.9848C9.92298 23.4891 10.4203 24.4271 11.5964 25.4238C12.5387 26.2225 13.5384 26.9493 14.4416 27.7922C14.5986 27.5926 14.7736 27.4094 14.9455 27.221C14.1062 26.5844 13.3863 25.8363 12.6175 25.1161C11.9187 24.4613 11.0337 23.8819 10.4874 23.0849Z" fill="#F9F9F9"/>
<path d="M7.86309 19.05C7.63899 18.8896 7.02066 18.5133 6.74917 18.7882C6.10288 19.4462 7.82056 21.3041 8.35066 20.2956C8.54705 19.8309 8.2476 19.3185 7.86309 19.05Z" fill="#F9F9F9"/>
<path d="M24.956 31.9399C24.6371 32.1283 24.3508 32.3524 24.1284 32.647C24.6665 33.0677 25.2032 33.495 25.7201 33.9417C25.9491 33.7684 26.1994 33.5964 26.4153 33.4082C25.9705 32.8993 25.4698 32.3966 24.956 31.9399Z" fill="#F9F9F9"/>
<path d="M9.03948 17.4198L9.42399 17.2217C9.44684 17.2103 9.46798 17.2037 9.49423 17.2006L9.70375 17.1694L9.61382 16.9779C9.4517 16.6325 9.36347 16.3394 9.33552 16.0548L9.3275 15.9746L9.25871 15.9352C9.2276 15.9172 9.20475 15.8944 9.18677 15.8647C8.98382 15.5325 8.80055 15.1611 8.60927 14.693L8.56989 14.5979L8.46684 14.5962C8.18708 14.5897 7.91073 14.5602 7.70121 14.5357L7.34295 14.4932L7.55732 14.7846C7.85166 15.1871 8.06774 15.6275 8.2984 16.0956C8.49625 16.4998 8.70236 16.9174 8.96267 17.3036L9.03948 17.4198Z" fill="#F9F9F9"/>
<mask id="mask1_24_67" style="mask-type:luminance" maskUnits="userSpaceOnUse" x="3" y="3" width="11" height="9">
<path d="M3.89618 3.11108H13.2533V11.6355H3.89618V3.11108Z" fill="white"/>
</mask>
<g mask="url(#mask1_24_67)">
<path d="M4.4326 11.2C4.78747 10.9445 5.11802 10.7122 5.41892 10.4847C5.78885 10.1736 6.12257 9.89211 6.42347 9.64006C7.0124 9.11458 7.47226 8.70381 7.82396 8.38954C8.52906 7.761 8.8234 7.54979 8.86448 7.59232C8.90361 7.6317 8.68292 7.92142 8.03177 8.60562C7.70292 8.9459 7.26444 9.38291 6.68354 9.92809C6.38094 10.1933 6.04722 10.4847 5.67583 10.807C5.41236 11.015 5.11802 11.226 4.80545 11.4503C5.04267 11.5485 5.30931 11.5762 5.57278 11.5879C6.50684 10.4142 7.73889 9.41256 8.83337 8.39756C10.1896 7.14218 11.5964 5.95559 13.2324 5.08472C13.1736 4.9243 13.1148 4.76218 13.0591 4.59861C12.4357 5.09298 11.873 5.44638 11.42 5.74753C10.9144 6.07833 10.5233 6.33694 10.2353 6.54475C9.94097 6.7494 9.74628 6.8984 9.61382 6.98833C9.47965 7.0751 9.40917 7.10281 9.38948 7.07996C9.37003 7.06197 9.40115 6.99319 9.5025 6.86729C9.60069 6.74114 9.77083 6.54961 10.0489 6.31239C10.3221 6.0652 10.7032 5.77548 11.2007 5.42354C11.6783 5.08642 12.2707 4.69996 12.9152 4.17131C12.8005 3.82934 12.6846 3.48711 12.565 3.14343C12.5422 3.16142 12.5193 3.17795 12.4962 3.19423C12.6044 3.35781 12.6566 3.51993 12.6795 3.65263C12.7074 3.82107 12.704 3.95038 12.6909 4.04541C12.6632 4.23694 12.6044 4.30062 12.547 4.30402C12.4882 4.30402 12.4374 4.23354 12.39 4.0617C12.3426 3.91611 12.3181 3.6835 12.1545 3.43972C12.1071 3.47253 12.0594 3.5068 12.012 3.53961C12.0283 3.57388 12.0449 3.605 12.0594 3.63611C12.076 3.69663 12.0923 3.75885 12.1102 3.81451C12.1151 3.86847 12.1217 3.91927 12.1265 3.9669C12.1414 4.15503 12.1299 4.28434 12.1265 4.37937C12.1185 4.47756 12.1151 4.54295 12.1037 4.59034C12.0923 4.63798 12.0709 4.66569 12.0449 4.67711C12.0169 4.68854 11.9858 4.68052 11.9467 4.64114C11.9073 4.60177 11.8633 4.53152 11.8288 4.4219C11.7945 4.31545 11.7731 4.17788 11.7423 4.02086C11.7257 3.93579 11.706 3.85704 11.6718 3.7851C11.531 3.88815 11.3937 3.99461 11.253 4.09937C11.2824 4.16329 11.3069 4.22211 11.3232 4.27777C11.3429 4.36284 11.3577 4.44135 11.3692 4.50868C11.3823 4.64114 11.3823 4.7476 11.3774 4.82295C11.3609 4.9751 11.3184 5.04218 11.2612 5.05045C11.2039 5.06187 11.1451 5.01423 11.0794 4.86864C11.0255 4.75562 10.9929 4.5675 10.911 4.35968C10.8391 4.4168 10.7654 4.4693 10.6952 4.52326C10.7263 4.57406 10.7508 4.62486 10.7703 4.66909C10.8179 4.78357 10.8408 4.88493 10.8553 4.9751C10.8833 5.1552 10.8833 5.28937 10.8799 5.39072C10.8719 5.59052 10.8391 5.66586 10.7817 5.68215C10.7263 5.70013 10.6509 5.62989 10.5856 5.43326C10.5527 5.33677 10.5216 5.21086 10.4759 5.06187C10.4514 4.9717 10.4089 4.86548 10.3615 4.78017C10.2827 4.84239 10.2076 4.90461 10.1274 4.96684C10.1896 5.08156 10.2159 5.18777 10.2353 5.26968C10.2567 5.39413 10.2647 5.48406 10.2647 5.55114C10.2647 5.68871 10.2402 5.74923 10.1848 5.77864C10.134 5.80003 10.0572 5.76892 9.97865 5.63475C9.91788 5.54458 9.87219 5.3827 9.79684 5.22715C9.7266 5.28281 9.65635 5.34017 9.58587 5.39413C9.61698 5.50059 9.64323 5.60024 9.66267 5.68555C9.68722 5.84256 9.69549 5.96871 9.69549 6.0618C9.69549 6.25187 9.65951 6.33038 9.60069 6.3401C9.54163 6.34836 9.47625 6.28614 9.40431 6.12086C9.36493 6.03579 9.33066 5.92618 9.28642 5.78375C9.27184 5.74923 9.25872 5.7084 9.24389 5.66902C9.18021 5.72152 9.11483 5.77548 9.0509 5.82774C9.05917 5.8868 9.07059 5.94902 9.07545 6.00298C9.09028 6.14541 9.08371 6.25503 9.07885 6.33694C9.06719 6.49906 9.02465 6.5727 8.96924 6.58413C8.91187 6.59555 8.85135 6.54475 8.78427 6.38118C8.75316 6.31409 8.73031 6.21906 8.70406 6.10944C8.59274 6.20277 8.48312 6.2927 8.37351 6.38118C8.40462 6.45968 8.43573 6.53333 8.46028 6.60041C8.49795 6.71829 8.5225 6.81479 8.5225 6.89499C8.51934 7.06197 8.47826 7.11763 8.41774 7.12249C8.36208 7.1259 8.295 7.07996 8.23618 6.9769C8.20191 6.92611 8.15451 6.85246 8.10687 6.76083C8.08743 6.72656 8.06434 6.69034 8.0449 6.65121C7.93528 6.74454 7.82712 6.83447 7.7175 6.92611C7.87135 7.27149 7.88618 7.5301 7.88764 7.68736C7.88618 7.87062 7.84681 7.94256 7.78628 7.95399C7.73062 7.96225 7.66694 7.90659 7.59646 7.74618C7.53764 7.62659 7.48684 7.44333 7.38378 7.2044C7.29872 7.27489 7.21365 7.34513 7.13344 7.41562C7.23649 7.56121 7.28243 7.70194 7.31014 7.81156C7.34295 7.95399 7.34951 8.06385 7.35267 8.14892C7.34951 8.31079 7.3184 8.37812 7.26274 8.39756C7.20562 8.41555 7.13514 8.36645 7.06003 8.216C7.02382 8.14236 6.98469 8.04416 6.93875 7.92944C6.90618 7.84777 6.86024 7.76586 6.80799 7.69052C6.7409 7.74618 6.67212 7.80354 6.60844 7.8592C6.75719 8.14236 6.7883 8.35843 6.81941 8.50232C6.8408 8.69385 6.81285 8.77746 6.75719 8.79715C6.70323 8.81343 6.63128 8.76263 6.53479 8.59736C6.46601 8.49576 6.39576 8.32562 6.28615 8.12753C6.18795 8.2126 6.08806 8.29621 5.99156 8.37812C5.99642 8.38954 6.00809 8.40413 6.01295 8.41555C6.05062 8.50402 6.08003 8.58593 6.10604 8.65958C6.14542 8.80201 6.1617 8.91819 6.1651 9.00496C6.16997 9.1734 6.13715 9.24874 6.08003 9.26357C6.02437 9.27986 5.95729 9.23246 5.87878 9.08347C5.81486 8.98527 5.7626 8.8217 5.66757 8.65131C5.57618 8.72666 5.48601 8.80517 5.39292 8.88052C5.52198 9.14569 5.60559 9.36347 5.61701 9.51076C5.62674 9.6843 5.5859 9.74628 5.53024 9.75454C5.47458 9.76597 5.40434 9.71687 5.33726 9.60555C5.27187 9.51222 5.1851 9.37805 5.06406 9.15541C5.01326 9.20135 4.96417 9.24388 4.91021 9.28812C4.9576 9.37489 5.00014 9.45656 5.03295 9.52704C5.09517 9.67118 5.13431 9.78565 5.15715 9.87899C5.20479 10.0574 5.1851 10.1425 5.1326 10.1638C5.07865 10.1899 5.00014 10.1473 4.88736 10.0066C4.8317 9.93635 4.76948 9.83815 4.69097 9.71201C4.65986 9.66461 4.62729 9.61041 4.58962 9.555C4.52083 9.61381 4.45205 9.67118 4.38181 9.72684C4.66326 10.437 4.67469 10.6974 4.57309 10.7399C4.47514 10.7793 4.31472 10.614 4.04639 10.0066C3.99243 10.0525 3.93847 10.0968 3.88281 10.1425C4.00872 10.4796 4.14142 10.8218 4.34899 11.105C4.37354 11.1392 4.40465 11.1703 4.4326 11.2Z" fill="#F9F9F9"/>
</g>
<path d="M8.18222 14.0364C8.04319 13.6665 7.90247 13.2934 7.74861 12.9283C7.69149 12.8972 7.64896 12.8579 7.61955 12.8122C7.18108 12.6026 6.70153 12.4471 6.21736 12.4077C6.32698 12.9135 6.55764 13.3916 6.73118 13.8794C7.21705 13.9185 7.69806 14.0036 8.18222 14.0364Z" fill="#F9F9F9"/>
<path d="M6.36465 11.7121C6.84736 11.7646 7.32666 11.9119 7.77316 12.11C8.67149 9.44197 11.6358 7.19954 14.1553 6.15684C13.9361 6.01927 13.7183 5.87854 13.4993 5.74121C11.9612 6.5727 10.5904 7.68736 9.33066 8.89534C8.36864 9.81361 7.24305 10.6891 6.36465 11.7121Z" fill="#F9F9F9"/>
<path d="M6.15028 14.2428C6.11747 14.2051 6.08806 14.1626 6.07007 14.1069C5.85594 13.4981 5.58906 12.9218 5.49111 12.2884C5.07063 12.2621 4.62073 12.1885 4.25906 11.9692C4.4309 12.5322 4.56167 13.1099 4.7024 13.6862C4.79573 14.0593 4.89879 14.4243 5.01667 14.786C5.33726 14.7846 5.64813 14.8057 5.92934 14.9056C6.00469 14.6864 6.07833 14.4637 6.15028 14.2428Z" fill="#F9F9F9"/>
<path d="M7.34295 18.2119L7.67837 18.2873L7.51625 17.9844C7.30358 17.5885 7.06319 17.2038 6.82913 16.8321C6.6624 16.5655 6.49542 16.3003 6.3367 16.0286C6.06205 15.5505 5.78375 15.3706 5.27333 15.3378L5.03125 15.3215L5.11632 15.5505C5.46802 16.4787 5.91306 17.3642 6.43976 18.1808L6.51024 18.289L6.62958 18.2416C6.83253 18.1614 7.07292 18.1514 7.34295 18.2119Z" fill="#F9F9F9"/>
<path d="M43.1582 44.992C43.0714 45.0312 42.9652 44.9969 42.8555 44.9264C42.754 44.9723 42.656 44.9772 42.5969 44.9215C42.5413 44.8693 42.5381 44.7694 42.5773 44.6663C42.5053 44.5696 42.4513 44.4665 42.4939 44.3963C42.5413 44.3095 42.6837 44.2653 42.875 44.3635C43.0043 44.303 43.1253 44.303 43.1778 44.3798C43.2235 44.4468 43.2138 44.545 43.1647 44.6418C43.2515 44.8005 43.2449 44.9561 43.1582 44.992ZM43.3626 44.0934C43.1059 43.9379 42.6249 43.7726 42.3728 44.0312C42.0719 44.3341 42.1274 44.8267 42.3352 45.1656C42.8196 45.8055 44.1513 44.5616 43.3626 44.0934Z" fill="#F9F9F9"/>
<path d="M8.40146 12.4537C9.13427 12.7763 9.84764 13.1411 10.6001 13.4114C10.5527 12.8696 10.569 12.3293 10.6641 11.8155C11.006 9.99522 11.9941 7.93119 13.895 7.36974C14.3549 7.23241 14.8244 7.11769 15.2955 7.03092C15.0845 6.91814 14.8767 6.80026 14.6526 6.71008C12.2721 7.61522 9.20476 9.87248 8.40146 12.4537Z" fill="#F9F9F9"/>
<path d="M42.5233 47.7483C42.296 47.791 42.0768 47.8056 41.8656 47.8025C41.8216 47.7959 41.7774 47.7942 41.7317 47.7859C41.0625 47.6681 40.3803 47.398 39.7094 47.0364C39.5427 46.9382 39.3774 46.8514 39.217 46.7466C39.0632 46.6402 38.9096 46.534 38.7606 46.4292C38.6167 46.3193 38.4908 46.208 38.3581 46.1018L38.2633 46.0199L38.2387 46.0002L38.2159 45.9805L38.2044 45.9691L38.1602 45.9217C38.1014 45.8595 38.0409 45.7973 37.9835 45.7367C37.5302 45.2392 37.2244 44.74 36.9447 44.3455C36.8088 44.144 36.6747 43.9787 36.565 43.8234C36.4423 43.6824 36.3443 43.5565 36.2542 43.4549C36.0595 43.2585 35.9647 43.1407 35.9844 43.1161C36.0038 43.0884 36.1414 43.1603 36.3686 43.3125C36.4817 43.3944 36.6093 43.5123 36.7614 43.6465C36.8956 43.7906 37.0558 43.9493 37.2113 44.144C37.5302 44.5173 37.8642 44.9952 38.2992 45.4356C38.3566 45.4895 38.4089 45.542 38.4677 45.5992L38.5102 45.6402L38.5216 45.6517L38.6444 45.7499C38.7768 45.8512 38.911 45.9659 39.0503 46.0673C39.1893 46.1606 39.33 46.2557 39.4739 46.3505C39.6195 46.4438 39.7799 46.5274 39.9369 46.6205C40.3883 46.8662 40.8448 47.0675 41.2866 47.2099C41.6529 47.362 42.0817 47.4717 42.5658 47.4717C42.9275 47.4717 43.3217 47.4063 43.7388 47.2556C43.3626 47.4948 42.9552 47.6666 42.5233 47.7483ZM35.456 42.026C35.428 42.0408 35.3298 41.9361 35.1842 41.7463C35.0241 41.5579 34.7851 41.2993 34.466 41.0015C34.1423 40.7018 33.7446 40.3664 33.3013 39.9571C33.0706 39.7459 32.8694 39.5332 32.6419 39.2795C32.4309 39.0406 32.2151 38.7951 31.9907 38.5413C31.7749 38.2827 31.5459 38.0438 31.3282 37.8112C31.1089 37.5788 30.9014 37.353 30.7016 37.1369C30.2927 36.7131 29.9294 36.3283 29.6302 35.9992C29.0264 35.343 28.6747 34.9142 28.7204 34.8651C28.7678 34.8175 29.1997 35.1663 29.8657 35.762C30.1963 36.0583 30.5839 36.4233 31.0141 36.8307C31.2219 37.0419 31.4378 37.2628 31.6653 37.4938C31.8894 37.7213 32.1217 37.9636 32.3441 38.2236C32.5682 38.4857 32.7875 38.7377 32.997 38.9832C33.1948 39.209 33.4109 39.4547 33.6105 39.6477C34.0161 40.0553 34.4072 40.4286 34.7066 40.7658C35.0075 41.1077 35.2202 41.414 35.3364 41.6415C35.446 41.877 35.4871 42.0129 35.456 42.026ZM45.1967 39.5184C45.1148 39.6134 45.0248 39.7133 44.9577 39.8001C44.8841 39.89 44.8513 39.9654 44.8236 40.0553C44.7745 40.2517 44.7859 40.5234 44.781 40.7935C44.7745 40.9425 44.7662 41.0832 44.7434 41.2339C44.7108 41.386 44.6828 41.5465 44.5732 41.7117C44.4685 41.8804 44.2641 42.0032 44.0874 42.0326C43.9075 42.0654 43.7536 42.0523 43.6098 42.0374C43.3217 42.0032 43.0714 41.9507 42.813 41.9081C42.5299 41.8559 42.2992 41.7854 42.0668 41.7511C41.8362 41.7151 41.6349 41.7166 41.4976 41.7822C41.4599 41.7985 41.4011 41.8756 41.3455 41.9752C41.3143 42.026 41.2881 42.0768 41.2441 42.139L41.213 42.1816C41.2047 42.1947 41.1933 42.211 41.1656 42.2372C41.1425 42.2569 41.1214 42.2798 41.0951 42.296C41.0706 42.3157 41.0429 42.3323 41.0329 42.3354L40.9938 42.3485L40.9855 42.3551L40.9806 42.3583H40.9775L40.9332 42.3714H40.9038L40.7957 42.3779H40.6877L40.5896 42.3583C40.4554 42.3354 40.3458 42.2815 40.2347 42.2338C39.8159 42.0129 39.523 41.7232 39.263 41.4597C38.754 40.9228 38.412 40.4401 38.1765 40.111C37.9427 39.7804 37.8199 39.592 37.8428 39.5692C37.8673 39.5464 38.0409 39.6953 38.3189 39.9931C38.6001 40.2877 38.9798 40.7347 39.4985 41.2208C39.7568 41.4565 40.0563 41.7166 40.4014 41.8804C40.4899 41.9115 40.5764 41.9507 40.66 41.9589L40.7254 41.9703L40.7842 41.9623L40.8448 41.9558H40.8596C40.8154 41.9558 40.8482 41.99 40.8367 42.018L40.8399 42.0146L40.8433 42.0097L40.8482 41.9949C40.8562 41.9818 40.8627 41.9589 40.8744 41.9475C40.8448 41.9589 40.9233 41.869 40.9741 41.7625C41.0329 41.6643 41.0985 41.5268 41.2635 41.4123C41.5533 41.2519 41.8707 41.2716 42.1308 41.3027C42.3974 41.3352 42.6592 41.4123 42.8898 41.45C43.145 41.4876 43.4134 41.5399 43.6603 41.5693C43.7848 41.5824 43.9058 41.5858 43.994 41.5693C44.0874 41.5499 44.1316 41.5187 44.1773 41.45C44.2723 41.3075 44.3017 41.0292 44.31 40.7886C44.3214 40.5186 44.3017 40.2551 44.3737 39.9391C44.4179 39.7804 44.5061 39.6232 44.5978 39.5184C44.6877 39.4039 44.7728 39.3172 44.853 39.2207C44.9349 39.1288 45.0166 39.0323 45.0951 38.9407C45.131 38.8947 45.1736 38.8473 45.2292 38.7965L45.2949 38.7343C45.2949 38.7294 45.2949 38.7263 45.2915 38.7214L45.2326 38.5659L45.1656 38.4072C45.1573 38.3809 45.1182 38.3104 45.0985 38.2662C45.0477 38.1648 44.9971 38.0649 44.9463 37.965C44.8938 37.8783 44.8367 37.7917 44.7827 37.705C44.5701 37.361 44.3229 37.0468 44.1036 36.767C43.6555 36.2022 43.2792 35.7506 43.0403 35.4183C42.8048 35.0843 42.6951 34.8831 42.7197 34.8651C42.7491 34.8454 42.9061 35.0058 43.1844 35.3004C43.4625 35.5933 43.8715 36.0092 44.3589 36.5509C44.6043 36.8258 44.8644 37.1238 45.1182 37.4969C45.1787 37.5902 45.2472 37.6853 45.3077 37.7801C45.3585 37.8768 45.4125 37.9765 45.4682 38.0749C45.4959 38.132 45.5156 38.16 45.5532 38.2416L45.6252 38.4006L45.6957 38.5724C45.7102 38.6067 45.7234 38.6541 45.7348 38.6952C45.7462 38.7343 45.7414 38.8622 45.7071 38.9144C45.6906 38.9455 45.6677 38.9766 45.6449 39.0029L45.6089 39.0406L45.545 39.1059C45.5139 39.1339 45.4747 39.1796 45.4353 39.2287C45.3554 39.3254 45.2752 39.4202 45.1967 39.5184ZM43.7308 45.6074C43.1074 46.1033 42.3386 46.2311 41.7971 45.5992C41.7725 45.5763 41.7497 45.5501 41.73 45.519C41.7103 45.4912 41.6955 45.4633 41.6857 45.4356C41.3486 44.8036 41.3617 43.8462 42.0163 43.4224C42.6003 43.0459 43.5687 43.1783 44.0171 43.7284C44.5061 44.329 44.3229 45.1344 43.7308 45.6074ZM36.3558 37.8277C35.7095 37.1401 34.8 36.1285 33.6775 34.8765C33.1049 34.2626 32.4783 33.5898 31.8077 32.8682C31.4575 32.5211 31.0926 32.1609 30.7181 31.7909C30.53 31.6045 30.3401 31.4161 30.1486 31.2263C29.9719 31.0431 29.7529 30.8547 29.5531 30.6666C27.9237 29.154 26.129 27.491 24.2494 25.7447C23.7716 25.3174 23.3037 24.8935 22.8375 24.4776C22.3745 24.062 21.9277 23.6413 21.4533 23.2616C20.7793 22.7033 20.1347 22.1633 19.4967 21.6363C19.5132 21.6706 19.5247 21.7066 19.5426 21.7394C20.1544 23.1617 20.9674 23.7755 20.8972 23.8428C20.8775 23.8622 20.6697 23.7346 20.3442 23.4269C20.0137 23.1158 19.6015 22.6051 19.2366 21.8801C19.127 21.6609 19.0257 21.4217 18.9323 21.1648C18.8801 21.1223 18.8244 21.0749 18.7736 21.0323C18.5903 20.8865 18.4136 20.7426 18.2403 20.5968C18.2729 20.7295 18.3091 20.8636 18.3466 20.9847C18.7785 22.358 19.3185 23.0964 19.2498 23.1403C19.2252 23.1552 19.0616 23.0013 18.8261 22.6559C18.5938 22.3123 18.2926 21.7902 18.0294 21.0945C17.9261 20.8162 17.8296 20.5134 17.7462 20.1877C16.4408 19.0893 15.3069 18.0075 14.4596 16.9468C13.9261 16.2837 13.5025 15.6324 13.1982 15.0252C12.8987 14.4161 12.7155 13.8515 12.6255 13.3802C12.5356 12.9104 12.5388 12.5339 12.5536 12.285C12.575 12.0347 12.6044 11.9085 12.6175 11.9085C12.6649 11.9085 12.5864 12.4389 12.8056 13.3408C12.9184 13.7893 13.1197 14.323 13.4322 14.9025C13.7494 15.4768 14.1782 16.0988 14.7163 16.7324C15.4805 17.639 16.4653 18.5673 17.5975 19.5181C17.5418 19.2104 17.4959 18.883 17.4699 18.5442C17.3945 17.5639 17.4699 16.4524 17.8361 15.3575C18.1978 14.2623 18.8686 13.318 19.6734 12.7057C20.0725 12.3997 20.4995 12.1722 20.9118 12.0101C21.0214 11.9676 21.1082 11.9316 21.2292 11.8922C21.3274 11.8628 21.4256 11.8383 21.5204 11.8103C21.7119 11.7598 21.9277 11.7286 22.1127 11.7056C22.88 11.645 23.4721 11.7923 23.8681 11.8825C24.2608 11.9807 24.4767 12.0495 24.4767 12.0854C24.4701 12.1166 24.2428 12.1083 23.8369 12.0658C23.433 12.0315 22.8455 11.9396 22.1552 12.0381C21.4778 12.1477 20.6583 12.4751 19.9434 13.0479C19.2252 13.6274 18.6249 14.49 18.2846 15.5079C17.9426 16.5309 17.8558 17.5785 17.9066 18.5196C17.9312 19.0157 17.9949 19.4855 18.0799 19.9177C18.2846 20.0861 18.4956 20.2548 18.7082 20.4232C18.61 20.0273 18.5364 19.6034 18.5038 19.1533C18.453 18.6195 18.4693 18.0549 18.5398 17.4772C18.6018 16.8992 18.7459 16.3068 18.96 15.7223L19.0402 15.5065C19.0731 15.4131 19.1042 15.3623 19.1353 15.2887C19.199 15.1545 19.2529 15.0218 19.3234 14.8876C19.4019 14.7535 19.477 14.6193 19.5541 14.4866C19.6343 14.3573 19.7274 14.2362 19.8141 14.115C20.1855 13.6403 20.6682 13.2737 21.1752 13.0511C21.3046 13.0037 21.4339 12.9578 21.5598 12.9104C21.6857 12.8695 21.8181 12.8513 21.9443 12.8204C22.2026 12.7597 22.4367 12.7402 22.6771 12.7172C23.1515 12.678 23.5983 12.6894 24.0022 12.7451C24.8138 12.8547 25.4338 13.1918 25.7478 13.529C26.0701 13.8598 26.1438 14.1101 26.1241 14.1215C26.0898 14.1429 25.9588 13.93 25.6268 13.6665C25.298 13.3965 24.7239 13.141 23.9646 13.0791C23.5868 13.0462 23.1664 13.0545 22.7165 13.1085C22.4972 13.1362 22.2534 13.1656 22.0325 13.2278C21.9197 13.2589 21.8018 13.2786 21.6891 13.318C21.576 13.3637 21.465 13.4079 21.3519 13.4522C20.9118 13.6583 20.5078 13.9759 20.1821 14.3998C20.107 14.5111 20.0219 14.6193 19.95 14.7338C19.8844 14.8517 19.8173 14.9695 19.7505 15.0906C19.6834 15.2133 19.626 15.3541 19.5638 15.4882C19.5361 15.5505 19.495 15.6324 19.4804 15.6832L19.4051 15.8878C19.2055 16.4327 19.0648 16.9876 18.9977 17.536C18.9275 18.0843 18.9029 18.6181 18.9389 19.1222C18.97 19.7424 19.0731 20.3185 19.2186 20.8325C20.0382 21.4905 20.8726 22.1861 21.7479 22.9048C22.2223 23.2813 22.6771 23.7035 23.1467 24.1177C23.6114 24.5399 24.0858 24.964 24.5666 25.3927C26.4612 27.1342 28.2314 28.8218 29.8509 30.3474C30.0538 30.5438 30.2534 30.7157 30.4515 30.922C30.6396 31.1167 30.8277 31.3082 31.0141 31.4949C31.3807 31.8711 31.7406 32.2396 32.0858 32.593C32.7566 33.3232 33.365 34.0236 33.9262 34.6556C35.019 35.9387 35.891 36.9831 36.4931 37.7081C37.0934 38.4317 37.4126 38.8442 37.388 38.867C37.3618 38.8899 36.9969 38.5185 36.3558 37.8277ZM14.1733 8.44521C14.2093 8.43524 14.2404 8.42868 14.2715 8.42552C14.8653 8.30278 15.5852 8.55482 15.7782 9.17851C15.9629 9.76767 15.6292 10.4764 14.9977 10.6057C14.4562 10.717 13.6758 10.5681 13.4043 10.0166C13.0526 9.30611 13.4796 8.68729 14.1733 8.44521ZM23.1204 30.6731C23.0288 30.6192 22.8817 30.5635 22.7165 30.4308C22.3631 30.195 21.9443 29.7711 21.4599 29.2294C21.2146 28.9593 20.956 28.6631 20.6583 28.3767C20.5863 28.3062 20.511 28.2358 20.4376 28.1621C20.3508 28.0919 20.2657 28.0214 20.179 27.9494C20.0023 27.8053 19.8256 27.6449 19.6343 27.5141C19.2643 27.2324 18.8538 26.9575 18.417 26.6826C18.193 26.5451 17.9786 26.4206 17.7365 26.2668C17.5107 26.1212 17.28 25.9722 17.0494 25.82C15.1696 24.5433 13.9261 22.8443 13.2947 21.5233C13.1393 21.1893 13.0183 20.8799 12.907 20.6116C12.8482 20.4789 12.8022 20.3496 12.7697 20.2319C12.7351 20.1107 12.7026 20.001 12.6729 19.9028C12.5618 19.5101 12.5159 19.2891 12.547 19.2809C12.5781 19.2711 12.6846 19.4707 12.8482 19.8423C12.8873 19.934 12.9315 20.0353 12.9806 20.1483C13.0249 20.2631 13.0803 20.3841 13.1474 20.5068C13.2801 20.7606 13.4257 21.0486 13.5907 21.366C14.2795 22.6102 15.5181 24.2061 17.3077 25.4239C17.5384 25.576 17.7676 25.725 17.9932 25.8706C18.2207 26.0147 18.4448 26.1537 18.664 26.2896C19.1073 26.5762 19.5247 26.8676 19.9089 27.1768C20.1119 27.3226 20.2772 27.483 20.449 27.6318C20.5324 27.7071 20.6174 27.7808 20.6991 27.853C20.7907 27.9429 20.8578 28.0199 20.9397 28.0984C21.2406 28.4144 21.4878 28.7301 21.7151 29.0133C22.1601 29.5782 22.5364 30.0249 22.8292 30.2852C22.9602 30.4291 23.1007 30.5193 23.1744 30.5946C23.2546 30.6649 23.2923 30.7091 23.284 30.7239C23.2743 30.737 23.2186 30.7174 23.1204 30.6731ZM47.5623 41.7232C46.9423 41.7577 46.3697 41.3435 46.139 40.7803C45.8838 40.1469 46.0685 39.1339 46.8801 39.0192C47.0944 38.9881 47.2906 38.9995 47.4641 39.0437C46.9455 38.1925 46.2255 37.4218 45.64 36.8095C44.2675 35.3772 42.867 33.978 41.5139 32.5325C38.772 29.5976 35.8208 26.7072 33.8346 23.1814C31.7552 19.4904 28.6028 16.0366 25.6351 13.02C24.1038 11.4649 22.4661 10.0688 20.7548 8.71524C19.6326 7.83125 18.26 7.49899 16.8727 7.53496C16.7859 7.58406 16.6797 7.59719 16.5701 7.54979C15.9974 7.58576 15.4265 7.68225 14.8767 7.82469C12.8448 8.35357 11.4051 10.0836 11.3152 12.259C11.2367 14.1021 11.7977 16.0611 13.0411 17.4526C13.9361 18.3709 14.8604 19.2743 15.6832 20.2597C16.3557 21.0683 16.9152 22.0094 17.6529 22.7558C19.1909 24.3092 21.0853 25.4353 22.638 26.9724C23.9957 28.316 25.2063 29.8268 26.6459 31.0888C28.0105 32.2822 29.4666 33.1022 30.6739 34.4672C32.0235 35.9977 33.5842 37.317 34.8425 38.9341C36.0432 40.4826 37.3209 41.9737 38.7017 43.3682C39.4525 44.1294 40.2361 44.8627 40.9938 45.6172C42.0719 46.691 43.1336 46.9921 44.4981 46.0838C44.8301 45.8626 45.105 45.6074 45.3568 45.3374C45.2817 45.4993 45.1998 45.6548 45.1116 45.8055C44.781 46.3128 44.328 46.6878 43.7505 46.9185C42.8556 47.277 42.08 47.1771 41.4779 46.9464C41.1508 46.7318 40.8302 46.452 40.4996 46.1149C39.1762 44.7677 37.7854 43.4975 36.5373 42.08C35.1483 40.5023 33.9262 38.7885 32.444 37.294C31.176 36.014 29.9359 34.2217 28.403 33.2675C25.3176 31.3474 23.3365 28.2489 20.5013 26.0361C19.1384 24.972 17.5892 23.9604 16.5552 22.548C15.3397 20.8865 13.9786 19.4199 12.5439 17.9484C11.7585 17.0661 11.1336 15.8795 10.8097 14.6356C10.8276 15.0481 10.8668 15.5784 10.9929 16.1464C11.1451 16.7635 11.4017 17.2725 11.6064 17.6261C11.8453 17.983 12.0055 18.2153 11.9515 18.261C11.9041 18.3004 11.6686 18.1597 11.3543 17.8485C11.0403 17.4968 10.7 16.9402 10.5316 16.256C10.4055 15.7028 10.3974 15.1856 10.4366 14.7732C9.93441 15.4097 9.66267 15.9581 10.1848 16.8894C10.4366 17.3427 10.6838 17.7946 10.9224 18.2513C11.4788 19.3185 12.0089 20.4004 12.5944 21.448C13.1425 22.4301 13.7069 23.4383 14.3777 24.3483C15.2204 25.4941 16.4242 26.2716 17.5515 27.1145C18.3942 27.7431 19.2874 28.2965 20.1316 28.92C20.8644 29.4603 21.28 30.2818 21.954 30.8809C22.4744 31.3442 23.0256 31.7812 23.5786 32.2182C23.8846 31.8155 24.2771 31.5063 24.7205 31.2623C24.7253 31.2591 24.7353 31.2574 24.7401 31.2543C24.8612 31.1478 25.0527 31.1084 25.2112 31.2492C25.8886 31.832 26.453 32.5097 27.047 33.1773C27.176 33.3232 27.1909 33.5293 27.0533 33.6751C26.7981 33.9451 26.52 34.1726 26.2337 34.4001C26.3907 34.5457 26.548 34.6947 26.7001 34.8454C28.403 36.5624 29.9836 38.4383 31.7258 40.111C32.5128 40.864 33.4126 41.4842 34.1962 42.2404C34.885 42.9083 35.4674 43.6644 36.1103 44.3749C37.2016 45.578 38.6478 47.1836 40.2852 47.7697C40.7237 47.9578 41.2752 48.1199 41.905 48.1199C42.1225 48.1199 42.35 48.1002 42.5824 48.0562C43.7063 47.845 44.6928 47.0889 45.3454 46.0231C45.4959 45.799 45.6235 45.5469 45.7282 45.2735C45.8167 45.0591 45.8918 44.8348 45.954 44.6058C45.9672 44.5941 45.982 44.5812 45.9966 44.573C46.1307 44.3963 46.2681 44.2162 46.4122 44.0344C46.9423 43.3601 47.8829 42.6268 48.0873 41.7774C48.1104 41.684 48.1233 41.5907 48.1347 41.5005C47.986 41.6284 47.7979 41.7117 47.5623 41.7232Z" fill="#F9F9F9"/>
<path d="M47.3382 40.0471C47.4476 40.0177 47.5458 40.0439 47.5983 40.1144C47.6637 40.2009 47.6163 40.3385 47.5264 40.4367C47.5098 40.5104 47.4673 40.566 47.4051 40.5857C47.3577 40.602 47.3103 40.5971 47.2612 40.5825C47.2055 40.6005 47.1499 40.602 47.1073 40.5694C47.0519 40.5349 47.0208 40.4744 47.0142 40.3976C47.006 40.3696 47.0174 40.3337 47.0371 40.2943C47.024 40.1881 47.0599 40.0882 47.1418 40.0439C47.2007 40.0097 47.2726 40.016 47.3382 40.0471ZM46.9306 39.7379C46.62 39.9343 46.6919 40.4287 46.8801 40.6905C47.0322 40.9 47.2989 41.0555 47.5623 41.021C47.8535 40.9867 47.8452 40.6316 47.8256 40.4122C47.7765 40.0357 47.3888 39.4548 46.9306 39.7379Z" fill="#F9F9F9"/>
<path d="M46.5184 47.7237C46.6871 47.9349 46.8801 48.2049 47.0011 48.552C47.1304 48.8925 47.2169 49.3033 47.1615 49.7372C47.1139 50.1725 46.9258 50.5767 46.6608 50.855C46.4022 51.153 46.067 51.2774 45.8053 51.3608C45.6677 51.3887 45.545 51.4033 45.437 51.4164C45.3308 51.4278 45.2358 51.4082 45.1607 51.4033C45.01 51.3853 44.93 51.3608 44.93 51.328C44.9332 51.2968 45.01 51.2594 45.1459 51.22C45.2129 51.1972 45.2997 51.1889 45.3896 51.1561C45.483 51.1218 45.5826 51.0859 45.6988 51.0433C45.9032 50.932 46.157 50.8076 46.3337 50.5652C46.4564 50.4148 46.5512 50.2264 46.6166 50.0186C46.5609 50.1251 46.4873 50.2233 46.3991 50.3132C46.4465 50.2544 46.4924 50.1939 46.5315 50.1282C46.9683 49.4229 46.8686 48.4915 46.2812 47.4882C46.3565 47.5552 46.435 47.6338 46.5184 47.7237ZM44.8284 47.02C45.2244 47.0446 45.6072 47.2427 45.9295 47.5176C46.525 48.4652 46.656 49.3313 46.2649 49.963C45.9557 50.4622 45.3389 50.7502 44.6991 50.7356C44.2004 50.6569 43.7374 50.4294 43.5099 50.0269C43.2204 49.5211 43.145 48.8024 43.3217 48.1969C43.024 48.3899 42.71 48.5489 42.3745 48.6174C42.147 48.6616 41.9229 48.6845 41.702 48.691C42.229 49.4457 42.754 50.2264 43.4331 50.8469C44.3589 51.6913 46.0179 52.4557 47.091 51.3068C48.4179 49.8844 46.8832 47.3931 45.9343 45.9299C45.6137 46.3341 45.2326 46.6878 44.8284 47.02Z" fill="#F9F9F9"/>
<path d="M10.2027 14.1004L10.4251 13.9335L10.1668 13.8287C9.75941 13.6666 9.35205 13.4785 8.95611 13.2949L8.37035 13.0266L8.59128 13.6044C8.77114 14.079 8.95611 14.5703 9.18191 15.0384L9.31923 15.3247L9.46312 15.0398C9.67264 14.6257 9.91472 14.318 10.2027 14.1004Z" fill="#F9F9F9"/>
<path d="M6.80799 16.0662C6.89622 16.2232 6.98469 16.3805 7.08288 16.5309L7.14997 16.6374C7.42146 17.0532 7.70122 17.4837 7.92872 17.9304L8.01379 18.0991L8.16424 17.9829C8.295 17.8813 8.42917 17.7863 8.56819 17.6964L8.70236 17.6096L8.61413 17.4771C8.37861 17.1269 8.19049 16.7324 8.00868 16.3525C7.71604 15.742 7.41319 15.1086 6.90278 14.6093C6.89135 14.5979 6.88333 14.5865 6.87337 14.5751L6.69351 14.3245L6.54306 14.7763C6.4874 14.9433 6.43004 15.112 6.37778 15.2821L6.35153 15.3623L6.44632 15.4736C6.58049 15.6603 6.6901 15.8567 6.80799 16.0662Z" fill="#F9F9F9"/>
<path d="M14.1111 9.77745C14.3075 9.90846 14.5741 9.99523 14.8128 9.92815C15.0648 9.85766 15.2447 9.55992 15.0714 9.31589C14.911 9.08839 14.6101 9.04926 14.3614 9.12291C14.0997 9.21284 13.7577 9.54679 14.1111 9.77745Z" fill="#F9F9F9"/>
</svg>
