<svg width="26" height="21" viewBox="0 0 26 21" fill="none" xmlns="http://www.w3.org/2000/svg">
<path d="M11.0969 1.67971L10.1535 0.253662C3.62626 4.56716 0 9.80817 0 14.1217C0 18.2926 3.11916 20.2537 5.76604 20.2537C9.1022 20.2537 11.459 17.4723 11.459 14.5495C11.459 12.0898 9.86343 9.98614 7.72365 9.20124C7.10747 8.98676 6.52727 8.80879 6.52727 7.7752C6.52727 6.45639 7.50665 4.49643 11.0969 1.67971ZM25.4929 1.67971L24.5495 0.253662C18.0942 4.56716 14.396 9.80817 14.396 14.1217C14.396 18.2926 17.5871 20.2537 20.234 20.2537C23.6061 20.2537 26 17.4723 26 14.5495C26 12.0898 24.3685 9.98614 22.1556 9.20124C21.5394 8.98676 20.9952 8.80879 20.9952 7.7752C20.9952 6.45639 22.0105 4.49529 25.4917 1.67857L25.4929 1.67971Z" fill="#DD8F19"/>
</svg>
