<svg width="37" height="58" viewBox="0 0 37 58" fill="none" xmlns="http://www.w3.org/2000/svg">
<path d="M0.661887 21.9921C2.95725 22.3319 4.37829 22.032 6.02216 17.8204L5.81151 20.4496C4.79959 22.7178 3.2803 23.474 0.835731 23.177C-0.27953 22.9236 -0.21809 22.0827 0.661887 21.9921Z" fill="#F9F9F9"/>
<path d="M7.33303 15.9367C5.39074 30.0908 7.55104 43.2505 15.547 54.9934C19.7586 60.0055 24.761 56.0342 21.0287 50.7646C14.4626 40.8184 9.88264 29.6468 10.561 16.2594C10.6669 14.3976 7.90241 13.8774 7.33303 15.9367ZM11.7222 43.8929C14.0991 47.8857 18.0507 58.7183 20.9585 53.3082C21.5511 59.4681 15.2095 57.6161 11.7222 43.8929ZM8.64195 15.7388C9.04599 15.6569 9.44011 15.9185 9.52108 16.3226C9.60234 16.7266 9.34158 17.1207 8.9367 17.2017C8.53238 17.2838 8.13854 17.0222 8.05729 16.6173C7.97546 16.2133 8.23707 15.82 8.64195 15.7388Z" fill="#F9F9F9"/>
<mask id="mask0_24_125" style="mask-type:luminance" maskUnits="userSpaceOnUse" x="10" y="0" width="27" height="17">
<path d="M10.689 0H37V16.3976H10.689V0Z" fill="white"/>
</mask>
<g mask="url(#mask0_24_125)">
<path d="M18.8578 16.3356L35.7851 6.44015C36.9316 5.70145 37.2314 4.6281 36.8265 3.27585L34.7248 0.00793457L10.759 14.1131C11.4694 14.5655 11.8134 15.1521 11.8069 15.8685L16.7153 13.1294L18.8578 16.3356ZM18.9184 15.5245L36.2738 3.68158C36.4392 4.28409 36.1994 5.17709 35.8038 5.87671L18.9184 15.5245Z" fill="#F9F9F9"/>
</g>
</svg>
