<svg width="57" height="70" viewBox="0 0 57 70" fill="none" xmlns="http://www.w3.org/2000/svg">
<mask id="mask0_10_30" style="mask-type:luminance" maskUnits="userSpaceOnUse" x="0" y="0" width="57" height="70">
<path d="M0 0H57V69.5234H0V0Z" fill="white"/>
</mask>
<g mask="url(#mask0_10_30)">
<mask id="mask1_10_30" style="mask-type:luminance" maskUnits="userSpaceOnUse" x="-16" y="-1" width="82" height="78">
<path d="M-15.923 50.671L42.745 -0.58313L65.1005 25.0062L6.43258 76.2599L-15.923 50.671Z" fill="white"/>
</mask>
<g mask="url(#mask1_10_30)">
<mask id="mask2_10_30" style="mask-type:luminance" maskUnits="userSpaceOnUse" x="-16" y="-1" width="82" height="78">
<path d="M-15.923 50.671L42.745 -0.58313L65.1005 25.0062L6.43258 76.2599L-15.923 50.671Z" fill="white"/>
</mask>
<g mask="url(#mask2_10_30)">
<mask id="mask3_10_30" style="mask-type:luminance" maskUnits="userSpaceOnUse" x="-16" y="-1" width="82" height="78">
<path d="M-15.923 50.671L42.745 -0.58313L65.1005 25.0062L6.43258 76.2599L-15.923 50.671Z" fill="white"/>
</mask>
<g mask="url(#mask3_10_30)">
<path fill-rule="evenodd" clip-rule="evenodd" d="M41.9838 0.0783691L43.7639 0.720799L43.9888 7.25013C45.4117 7.47135 46.7038 8.11737 47.6656 9.1954C50.2231 12.0622 49.4785 16.9013 46.0027 20.0016C43.3373 22.3792 39.8389 23.0443 37.1994 21.9325C29.406 28.6687 28.0053 36.157 28.1499 44.7276L0.668267 69.4334L0.0100098 68.7774L25.7202 36.9969C28.0273 34.3405 27.8953 31.7117 30.5819 27.3446C33.0595 23.8368 34.2685 21.6962 34.6289 19.8538H34.6293C32.6261 16.9484 33.4858 12.5212 36.74 9.61806C38.1367 8.3724 39.7626 7.59688 41.3734 7.30085L41.9834 0.0787288L41.9838 0.0783691ZM37.5922 10.6134C40.0666 8.40622 43.765 8.51269 45.8509 10.8511C47.9369 13.1895 47.6218 16.8761 45.1474 19.0833C42.6726 21.2904 38.9745 21.184 36.8882 18.8455C34.8023 16.5071 35.1178 12.8205 37.5922 10.6134ZM44.4618 23.7173L44.7704 21.6131L47.8674 21.817C50.5501 21.0602 53.4284 21.7242 55.2759 23.795C57.9434 26.7856 57.4524 31.5786 54.1791 34.498C51.3253 37.044 47.2969 37.3256 44.5434 35.3735L44.5438 35.3742C39.2903 34.8681 34.1944 39.077 29.1305 44.2647L29.3449 39.1745C34.7329 38.135 38.472 34.9458 41.4615 30.7797L41.7197 30.2798C41.8032 27.7528 42.3827 25.7529 44.4614 23.7177L44.4618 23.7173ZM45.5078 25.2691C48.016 23.0317 51.7094 23.0774 53.7551 25.3709C55.801 27.6644 55.4262 31.3387 52.9177 33.5761C50.4095 35.8134 46.7164 35.7678 44.6704 33.4743C42.6248 31.1808 42.9996 27.5065 45.5078 25.2691ZM24.7774 41.4478C25.0813 40.9025 25.7324 40.6201 26.3557 40.804C26.9795 40.9881 27.3723 41.5788 27.3309 42.2014L24.7774 41.4478ZM27.1608 42.7773C26.8568 43.323 26.2058 43.6053 25.5824 43.4212C24.9587 43.2373 24.5659 42.6467 24.6072 42.0237L27.1608 42.7773Z" fill="#F9F9F9"/>
</g>
</g>
</g>
</g>
</svg>
