<svg width="51" height="50" viewBox="0 0 51 50" fill="none" xmlns="http://www.w3.org/2000/svg">
<path d="M44.9444 49.5H6.05556C3.26345 49.5 1 47.2365 1 44.4444V5.55556C1 2.76345 3.26345 0.5 6.05556 0.5H44.9444C47.7365 0.5 50 2.76345 50 5.55556V44.4444C50 47.2365 47.7365 49.5 44.9444 49.5Z" fill="#1C1C1C" stroke="#DD8F19"/>
<path fill-rule="evenodd" clip-rule="evenodd" d="M25.5 8.3335C30.0264 8.3335 30.5939 8.35268 32.3716 8.43379C34.1456 8.5147 35.3572 8.79647 36.4173 9.20851C37.5133 9.63437 38.4427 10.2043 39.3693 11.1308C40.2959 12.0574 40.8658 12.9869 41.2917 14.0829C41.7037 15.143 41.9854 16.3545 42.0663 18.1285C42.1475 19.9062 42.1666 20.4738 42.1666 25.0002C42.1666 29.5266 42.1475 30.0941 42.0663 31.8718C41.9854 33.6458 41.7037 34.8573 41.2917 35.9175C40.8658 37.0134 40.2959 37.9429 39.3693 38.8695C38.4427 39.7961 37.5133 40.366 36.4173 40.7919C35.3572 41.2038 34.1456 41.4856 32.3716 41.5665C30.5939 41.6476 30.0264 41.6668 25.5 41.6668C20.9736 41.6668 20.406 41.6476 18.6283 41.5665C16.8544 41.4856 15.6428 41.2038 14.5827 40.7919C13.4867 40.366 12.5572 39.7961 11.6306 38.8695C10.7041 37.9429 10.1342 37.0134 9.70832 35.9175C9.29629 34.8573 9.01452 33.6458 8.93361 31.8718C8.8525 30.0941 8.83331 29.5266 8.83331 25.0002C8.83331 20.4738 8.8525 19.9062 8.93361 18.1285C9.01452 16.3545 9.29629 15.143 9.70832 14.0829C10.1342 12.9869 10.7041 12.0574 11.6306 11.1308C12.5572 10.2043 13.4867 9.63437 14.5827 9.20851C15.6428 8.79647 16.8544 8.5147 18.6283 8.43379C20.406 8.35268 20.9736 8.3335 25.5 8.3335ZM25.5 11.3365C21.0498 11.3365 20.5226 11.3535 18.7652 11.4337C17.1402 11.5078 16.2577 11.7793 15.6705 12.0075C14.8925 12.3099 14.3373 12.671 13.7541 13.2543C13.1709 13.8375 12.8097 14.3927 12.5074 15.1706C12.2791 15.7579 12.0076 16.6404 11.9335 18.2654C11.8533 20.0228 11.8363 20.55 11.8363 25.0002C11.8363 29.4503 11.8533 29.9775 11.9335 31.7349C12.0076 33.3599 12.2791 34.2424 12.5074 34.8297C12.8097 35.6076 13.1709 36.1628 13.7541 36.746C14.3373 37.3293 14.8925 37.6904 15.6705 37.9928C16.2577 38.221 17.1402 38.4925 18.7652 38.5666C20.5224 38.6468 21.0495 38.6638 25.5 38.6638C29.9505 38.6638 30.4776 38.6468 32.2347 38.5666C33.8597 38.4925 34.7422 38.221 35.3295 37.9928C36.1075 37.6904 36.6627 37.3293 37.2458 36.746C37.8291 36.1628 38.1903 35.6076 38.4926 34.8297C38.7208 34.2424 38.9924 33.3599 39.0665 31.7349C39.1466 29.9775 39.1636 29.4503 39.1636 25.0002C39.1636 20.55 39.1466 20.0228 39.0665 18.2654C38.9924 16.6404 38.7208 15.7579 38.4926 15.1706C38.1903 14.3927 37.8291 13.8375 37.2458 13.2543C36.6627 12.671 36.1075 12.3099 35.3295 12.0075C34.7422 11.7793 33.8597 11.5078 32.2347 11.4337C30.4773 11.3535 29.9502 11.3365 25.5 11.3365ZM25.5 16.4416C30.2268 16.4416 34.0585 20.2734 34.0585 25.0002C34.0585 29.7269 30.2268 33.5587 25.5 33.5587C20.7732 33.5587 16.9414 29.7269 16.9414 25.0002C16.9414 20.2734 20.7732 16.4416 25.5 16.4416ZM25.5 30.5557C28.5682 30.5557 31.0555 28.0684 31.0555 25.0002C31.0555 21.9319 28.5682 19.4446 25.5 19.4446C22.4317 19.4446 19.9444 21.9319 19.9444 25.0002C19.9444 28.0684 22.4317 30.5557 25.5 30.5557ZM36.3967 16.1035C36.3967 17.2081 35.5013 18.1034 34.3967 18.1034C33.2922 18.1034 32.3967 17.2081 32.3967 16.1035C32.3967 14.9989 33.2922 14.1034 34.3967 14.1034C35.5013 14.1034 36.3967 14.9989 36.3967 16.1035Z" fill="white"/>
</svg>
