<svg width="51" height="50" viewBox="0 0 51 50" fill="none" xmlns="http://www.w3.org/2000/svg">
<path d="M7.74638 0.5H43.2536C46.9795 0.5 50 3.52046 50 7.24638V42.7536C50 46.4795 46.9795 49.5 43.2536 49.5H7.74638C4.02046 49.5 1 46.4795 1 42.7536V7.24638C1 3.52046 4.02046 0.5 7.74638 0.5Z" fill="#1C1C1C" stroke="#DD8F19"/>
<path fill-rule="evenodd" clip-rule="evenodd" d="M31.1959 19.6257C33.2769 21.1179 35.8266 21.9952 38.5798 21.9952V17.8116C37.0428 17.4829 35.6827 16.6773 34.6593 15.5574C32.9084 14.4615 31.6474 12.654 31.2777 10.5376H27.418V31.7645C27.4088 34.2387 25.4069 36.2424 22.9377 36.2424C21.4826 36.2424 20.1899 35.5466 19.3712 34.4692C17.9094 33.7298 16.9072 32.2098 16.9072 30.4552C16.9072 27.9732 18.9129 25.9615 21.3875 25.9615C21.8615 25.9615 22.3184 26.0357 22.7476 26.1722V21.9448C17.4341 22.0549 13.1611 26.4094 13.1611 31.7659C13.1611 34.4401 14.2254 36.8639 15.9525 38.6343C17.5107 39.6839 19.387 40.2961 21.4047 40.2961C26.8132 40.2961 31.1985 35.8979 31.1985 30.4725L31.1959 19.6257Z" fill="white"/>
<path fill-rule="evenodd" clip-rule="evenodd" d="M38.6945 17.5323V16.4093C37.3022 16.4118 35.9392 16.0253 34.7578 15.2941C35.8027 16.4289 37.179 17.2114 38.6945 17.5323ZM31.3608 10.3126C31.325 10.1114 31.2984 9.91025 31.2799 9.7064V9.02783H25.9285V30.0938C25.9205 32.5489 23.9091 34.5373 21.4296 34.5373C20.7017 34.5373 20.0149 34.3663 19.4063 34.0613C20.2283 35.1305 21.5264 35.8209 22.9876 35.8209C25.467 35.8209 27.4772 33.8325 27.4864 31.3772V10.3126H31.3608ZM22.7953 21.6327V20.4373C22.3485 20.3768 21.8976 20.3466 21.4455 20.3466C16.0132 20.3466 11.6111 24.7113 11.6111 30.095C11.6111 33.4708 13.3415 36.4454 15.9708 38.1945C14.2365 36.4376 13.1678 34.0323 13.1678 31.3786C13.1678 26.0631 17.4598 21.7418 22.7953 21.6327Z" fill="white"/>
</svg>
